<svg data-v-423bf9ae="" xmlns="http://www.w3.org/2000/svg" viewBox="0 0 407 90" class="iconLeft"><!----><!----><!----><g data-v-423bf9ae="" id="c164964c-4cc9-43ab-a2b9-174615eddda1" fill="#ffffff" transform="matrix(4.979253427292024,0,0,4.979253427292024,105.12033102709796,-3.7717838954077365)"><path d="M9.18 15.54C9.18 15.69 9.06 15.82 8.92 15.82L1.26 15.82C1.11 15.82 0.98 15.69 0.98 15.54L0.98 4.06C0.98 3.91 1.11 3.78 1.26 3.78L8.64 3.78C8.79 3.78 8.92 3.91 8.92 4.06L8.92 5.70C8.92 5.85 8.79 5.96 8.64 5.96L3.16 5.96L3.16 8.71L8.36 8.71C8.51 8.71 8.64 8.82 8.64 8.97L8.64 10.61C8.64 10.77 8.51 10.89 8.36 10.89L3.16 10.89L3.16 13.62L8.92 13.62C9.06 13.62 9.18 13.75 9.18 13.90ZM18.94 4.06C18.94 4.10 18.94 4.13 18.93 4.17L18.90 4.21L15.86 10.05L15.40 10.96L12.96 15.62L12.95 15.67C12.95 15.68 12.95 15.68 12.94 15.68C12.89 15.75 12.81 15.81 12.71 15.81L10.86 15.81C10.71 15.81 10.60 15.68 10.60 15.51C10.60 15.48 10.60 15.46 10.61 15.43L10.65 15.34L13.48 9.91L10.61 4.20C10.60 4.14 10.58 4.10 10.58 4.06C10.58 4.03 10.58 3.99 10.60 3.96L10.64 3.88C10.70 3.81 10.77 3.77 10.86 3.77L12.68 3.77C12.78 3.77 12.88 3.82 12.92 3.91L14.73 7.52L16.58 3.95C16.59 3.93 16.59 3.92 16.59 3.92L16.62 3.88C16.66 3.81 16.74 3.77 16.83 3.77L18.68 3.77C18.83 3.77 18.94 3.91 18.94 4.06ZM27.64 5.68C27.64 5.84 27.48 5.96 27.30 5.96L24.63 5.96L24.63 15.47C24.63 15.65 24.50 15.81 24.36 15.81L22.71 15.81C22.57 15.81 22.44 15.65 22.44 15.47L22.44 5.96L19.71 5.96C19.56 5.96 19.43 5.84 19.43 5.68L19.43 4.05C19.43 3.89 19.56 3.78 19.71 3.78L27.30 3.78C27.48 3.78 27.64 3.89 27.64 4.05ZM37.31 15.53C37.31 15.68 37.18 15.81 37.04 15.81L35.39 15.81C35.25 15.81 35.13 15.68 35.13 15.53L35.13 10.88L31.29 10.88L31.29 15.53C31.29 15.68 31.18 15.81 31.02 15.81L29.39 15.81C29.23 15.81 29.11 15.68 29.11 15.53L29.11 4.10C29.11 3.92 29.23 3.77 29.39 3.77L31.02 3.77C31.18 3.77 31.29 3.92 31.29 4.10L31.29 8.69L35.13 8.69L35.13 4.10C35.13 3.92 35.25 3.77 35.39 3.77L37.04 3.77C37.18 3.77 37.31 3.92 37.31 4.10ZM44.52 15.82C41.20 15.82 38.50 13.12 38.50 9.80C38.50 6.48 41.20 3.78 44.52 3.78C47.84 3.78 50.54 6.48 50.54 9.80C50.54 13.12 47.84 15.82 44.52 15.82ZM44.52 5.96C42.41 5.96 40.68 7.69 40.68 9.80C40.68 11.91 42.41 13.62 44.52 13.62C46.63 13.62 48.34 11.91 48.34 9.80C48.34 7.69 46.63 5.96 44.52 5.96ZM60.14 15.37L57.92 11.42L57.61 10.89L57.54 10.77C59.57 10.32 60.62 8.82 60.62 7.35C60.62 6.38 60.17 5.46 59.40 4.82C58.62 4.14 57.51 3.79 56.24 3.79L52.15 3.79C52.00 3.79 51.87 3.92 51.87 4.06L51.87 5.17L52.01 5.42L52.01 5.43L53.87 8.71L51.87 8.71L51.87 15.54C51.87 15.69 52.00 15.82 52.15 15.82L53.79 15.82C53.93 15.82 54.05 15.69 54.05 15.54L54.05 10.89L55.10 10.89L55.40 11.42L57.79 15.65L57.82 15.69C57.86 15.76 57.95 15.82 58.04 15.82L59.92 15.82C60.07 15.82 60.19 15.69 60.19 15.53C60.19 15.48 60.19 15.44 60.16 15.40ZM56.08 8.19L54.84 5.98L56.24 5.98C57.75 5.98 58.42 6.69 58.42 7.35C58.42 7.91 57.92 8.53 56.78 8.68C56.66 8.69 56.52 8.71 56.38 8.71Z"></path></g><!----><g data-v-423bf9ae="" id="032ddc2e-04f5-4a39-b2b9-a298b3fcc3ce" transform="matrix(2.8125,0,0,2.8125,0,0)" stroke="none" fill="#34A1E5"><path d="M16 32c8.837 0 16-7.163 16-16S24.837 0 16 0 0 7.163 0 16s7.163 16 16 16zM14.817 6.421h2v8.886h8.887v2H14.817V6.421zm-5.959.437h2v14.283h14.283v2H8.858V6.858z"></path></g><!----></svg>